<?xml version="1.0" encoding="utf-8"?>
<!-- Generator: Adobe Illustrator 23.1.1, SVG Export Plug-In . SVG Version: 6.00 Build 0)  -->
<svg version="1.1" id="图层_1" xmlns="http://www.w3.org/2000/svg" xmlns:xlink="http://www.w3.org/1999/xlink" x="0px" y="0px"
	 viewBox="0 0 161 161" style="enable-background:new 0 0 161 161;" xml:space="preserve">
<style type="text/css">
	.st0{fill:#708FFF;}
</style>
<title>资源 1</title>
<g>
	<g id="图层_1-2">
		<path class="st0" d="M80.5,161C36,161,0,125,0,80.5S36,0,80.5,0S161,36,161,80.5c0,0,0,0,0,0C160.9,124.9,124.9,160.9,80.5,161z
			 M80.5,8.3C40.6,8.3,8.3,40.6,8.3,80.5s32.3,72.2,72.2,72.2s72.2-32.3,72.2-72.2l0,0C152.6,40.7,120.3,8.4,80.5,8.3L80.5,8.3z"/>
		<circle class="st0" cx="80.5" cy="80.5" r="9.2"/>
		<path class="st0" d="M80.5,84c-1.9,0-3.5-1.6-3.5-3.5V27c0-1.9,1.6-3.5,3.5-3.5S84,25.1,84,27v53.5C84,82.4,82.4,84,80.5,84z"/>
		<path class="st0" d="M126,84.7H84.2c-2.3,0.1-4.3-1.7-4.4-4c-0.1-2.3,1.7-4.3,4-4.4c0.1,0,0.3,0,0.4,0H126c2.3-0.1,4.3,1.7,4.4,4
			c0.1,2.3-1.7,4.3-4,4.4C126.3,84.7,126.1,84.7,126,84.7z"/>
	</g>
</g>
</svg>
